<?xml version="1.0" standalone="no"?>
<!DOCTYPE svg PUBLIC "-//W3C//DTD SVG 20010904//EN"
 "http://www.w3.org/TR/2001/REC-SVG-20010904/DTD/svg10.dtd">
<svg version="1.0" xmlns="http://www.w3.org/2000/svg"
 width="200.000000pt" height="200.000000pt" viewBox="0 0 200.000000 200.000000"
 preserveAspectRatio="xMidYMid meet">

<g transform="translate(0.000000,200.000000) scale(0.100000,-0.100000)"
fill="#000000" stroke="none">
<path d="M310 1608 c-20 -21 -20 -32 -20 -514 0 -482 0 -492 21 -518 l20 -26
463 0 462 0 13 -36 c33 -90 120 -149 221 -148 139 1 234 96 234 234 0 116 -72
206 -186 234 l-28 6 0 369 c0 357 -1 369 -21 395 l-20 26 -569 0 -569 0 -21
-22z m1154 -34 c3 -9 6 -177 6 -375 l0 -359 -27 -6 c-100 -24 -173 -103 -189
-203 l-7 -41 -446 0 c-334 0 -450 3 -459 12 -9 9 -12 130 -12 484 0 260 3 479
6 488 6 14 65 16 564 16 499 0 558 -2 564 -16z m79 -785 c60 -16 114 -72 133
-135 14 -49 14 -59 0 -107 -34 -118 -168 -176 -277 -121 -40 20 -87 79 -99
125 -26 96 30 200 126 234 48 17 68 18 117 4z"/>
<path d="M430 1185 l0 -315 470 0 470 0 0 315 0 315 -470 0 -470 0 0 -315z
m900 0 l0 -275 -118 0 -119 0 -73 115 c-40 63 -75 115 -79 115 -3 0 -22 -25
-41 -55 -19 -30 -38 -55 -41 -55 -3 0 -34 45 -69 100 -35 55 -66 100 -69 100
-3 0 -51 -71 -106 -158 -75 -117 -106 -158 -123 -160 l-22 -3 0 275 0 276 430
0 430 0 0 -275z m-538 -135 c35 -55 65 -100 68 -100 3 0 20 25 38 55 18 30 37
55 42 55 4 0 29 -33 55 -72 l46 -73 -232 -3 c-128 -1 -234 0 -237 3 -6 5 140
235 150 235 3 0 35 -45 70 -100z"/>
<path d="M1061 1324 c-76 -64 -29 -184 72 -184 51 0 107 52 107 100 0 96 -106
146 -179 84z m119 -34 c41 -41 10 -110 -48 -110 -35 0 -64 30 -64 65 0 58 71
86 112 45z"/>
<path d="M1470 639 c0 -62 2 -70 18 -67 14 3 18 16 20 71 3 62 1 67 -18 67
-18 0 -20 -6 -20 -71z"/>
<path d="M1470 510 c0 -23 4 -30 20 -30 16 0 20 7 20 30 0 23 -4 30 -20 30
-16 0 -20 -7 -20 -30z"/>
</g>
</svg>
