<?xml version="1.0" encoding="UTF-8"?>
<!DOCTYPE svg PUBLIC "-//W3C//DTD SVG 1.1//EN" "http://www.w3.org/Graphics/SVG/1.1/DTD/svg11.dtd">
<svg xmlns="http://www.w3.org/2000/svg" version="1.1" width="48px" height="42px" style="shape-rendering:geometricPrecision; text-rendering:geometricPrecision; image-rendering:optimizeQuality; fill-rule:evenodd; clip-rule:evenodd" xmlns:xlink="http://www.w3.org/1999/xlink">
<g><path style="opacity:1" fill="#52b1fe" d="M -0.5,-0.5 C 15.5,-0.5 31.5,-0.5 47.5,-0.5C 47.5,13.5 47.5,27.5 47.5,41.5C 31.5,41.5 15.5,41.5 -0.5,41.5C -0.5,27.5 -0.5,13.5 -0.5,-0.5 Z"/></g>
<g><path style="opacity:1" fill="#b2b2b3" d="M 23.5,19.5 C 23.5578,22.6644 24.2245,25.6644 25.5,28.5C 24.7109,28.7828 24.0442,29.2828 23.5,30C 16.8417,30.4996 10.175,30.6663 3.5,30.5C 3.5,28.8333 3.5,27.1667 3.5,25.5C 4.83333,25.5 6.16667,25.5 7.5,25.5C 6.90199,15.8056 11.2353,12.3056 20.5,15C 21.8825,16.2708 22.8825,17.7708 23.5,19.5 Z"/></g>
<g><path style="opacity:1" fill="#eff7fc" d="M 24.5,19.5 C 28.2198,19.5642 31.8865,20.0642 35.5,21C 37.4257,21.4224 38.4257,22.5891 38.5,24.5C 36.0666,21.8531 33.2333,21.1865 30,22.5C 28.951,20.8934 27.451,20.2267 25.5,20.5C 24.9969,25.5 24.6636,25.1667 24.5,19.5 Z"/></g>
<g><path style="opacity:1" fill="#cccccc" d="M 23.5,19.5 C 23.8333,19.5 24.1667,19.5 24.5,19.5C 24.6636,25.1667 24.9969,25.5 25.5,20.5C 27.451,20.2267 28.951,20.8934 30,22.5C 33.2333,21.1865 36.0666,21.8531 38.5,24.5C 38.3398,26.1992 38.5065,27.8659 39,29.5C 39.4828,28.552 39.6495,27.552 39.5,26.5C 43.0681,26.7593 44.4015,28.7593 43.5,32.5C 37.1667,32.5 30.8333,32.5 24.5,32.5C 25.4383,30.6743 26.4383,28.841 27.5,27C 27.3333,26.1667 27.1667,25.3333 27,24.5C 26.79,26.0581 26.29,27.3915 25.5,28.5C 24.2245,25.6644 23.5578,22.6644 23.5,19.5 Z"/></g>
<g><path style="opacity:1" fill="#e8ecef" d="M 24.5,19.5 C 24.1667,19.5 23.8333,19.5 23.5,19.5C 22.8825,17.7708 21.8825,16.2708 20.5,15C 11.2353,12.3056 6.90199,15.8056 7.5,25.5C 6.16667,25.5 4.83333,25.5 3.5,25.5C 3.5,27.1667 3.5,28.8333 3.5,30.5C 10.175,30.6663 16.8417,30.4996 23.5,30C 24.0442,29.2828 24.7109,28.7828 25.5,28.5C 26.29,27.3915 26.79,26.0581 27,24.5C 27.1667,25.3333 27.3333,26.1667 27.5,27C 26.4383,28.841 25.4383,30.6743 24.5,32.5C 20.8333,32.5 17.1667,32.5 13.5,32.5C 12.1667,32.5 10.8333,32.5 9.5,32.5C 8.83333,32.5 8.16667,32.5 7.5,32.5C 3.90102,33.0624 1.90102,31.5624 1.5,28C 4.17787,23.4957 6.84454,18.829 9.5,14C 14.9664,11.4522 19.7998,12.2856 24,16.5C 24.4828,17.448 24.6495,18.448 24.5,19.5 Z"/></g>
<g><path style="opacity:1" fill="#e5e8ea" d="M 38.5,24.5 C 45.3533,25.151 47.0199,28.3177 43.5,34C 37.5092,34.4995 31.5092,34.6662 25.5,34.5C 25.1667,33.8333 24.8333,33.1667 24.5,32.5C 30.8333,32.5 37.1667,32.5 43.5,32.5C 44.4015,28.7593 43.0681,26.7593 39.5,26.5C 39.6495,27.552 39.4828,28.552 39,29.5C 38.5065,27.8659 38.3398,26.1992 38.5,24.5 Z"/></g>
<g><path style="opacity:1" fill="#b8defe" d="M 7.5,32.5 C 8.16667,32.5 8.83333,32.5 9.5,32.5C 11.0322,34.7813 12.3656,34.7813 13.5,32.5C 17.1667,32.5 20.8333,32.5 24.5,32.5C 24.8333,33.1667 25.1667,33.8333 25.5,34.5C 24.075,38.8157 21.575,39.4823 18,36.5C 17.3261,37.5784 16.3261,38.2451 15,38.5C 12.8107,37.3121 10.644,37.3121 8.5,38.5C 4.85364,37.1999 4.5203,35.1999 7.5,32.5 Z"/></g>
<g><path style="opacity:1" fill="#56b1fe" d="M 9.5,32.5 C 10.8333,32.5 12.1667,32.5 13.5,32.5C 12.3656,34.7813 11.0322,34.7813 9.5,32.5 Z"/></g>
</svg>
