<?xml version="1.0" encoding="UTF-8"?>
<!DOCTYPE svg PUBLIC "-//W3C//DTD SVG 1.1//EN" "http://www.w3.org/Graphics/SVG/1.1/DTD/svg11.dtd">
<svg xmlns="http://www.w3.org/2000/svg" version="1.1" width="48px" height="42px" style="shape-rendering:geometricPrecision; text-rendering:geometricPrecision; image-rendering:optimizeQuality; fill-rule:evenodd; clip-rule:evenodd" xmlns:xlink="http://www.w3.org/1999/xlink">
<g><path style="opacity:1" fill="#53b1fc" d="M -0.5,-0.5 C 7.83333,-0.5 16.1667,-0.5 24.5,-0.5C 23.8333,0.166667 23.1667,0.833333 22.5,1.5C 23.1667,14.8333 23.8333,14.8333 24.5,1.5C 25.2448,4.38965 25.9115,7.38965 26.5,10.5C 26.3284,11.4916 26.6618,12.1583 27.5,12.5C 27.5,12.8333 27.5,13.1667 27.5,13.5C 18.6716,12.1607 15.1716,15.8274 17,24.5C 18.129,26.1412 19.629,27.1412 21.5,27.5C 22.2625,28.2679 23.2625,28.7679 24.5,29C 22.8203,31.8108 23.4869,33.6441 26.5,34.5C 25.1938,35.4674 24.5271,36.8007 24.5,38.5C 23.375,39.3478 23.375,40.3478 24.5,41.5C 16.1667,41.5 7.83333,41.5 -0.5,41.5C -0.5,27.5 -0.5,13.5 -0.5,-0.5 Z"/></g>
<g><path style="opacity:1" fill="#54b1fd" d="M 24.5,-0.5 C 32.1667,-0.5 39.8333,-0.5 47.5,-0.5C 47.5,13.5 47.5,27.5 47.5,41.5C 39.8333,41.5 32.1667,41.5 24.5,41.5C 23.375,40.3478 23.375,39.3478 24.5,38.5C 26.54,41.1339 28.7067,41.1339 31,38.5C 33,41.1667 35,41.1667 37,38.5C 38.7328,40.6015 40.7328,40.9348 43,39.5C 43.7401,38.2506 43.5735,37.2506 42.5,36.5C 42.3893,35.8826 42.056,35.3826 41.5,35C 45.1044,33.6661 46.271,31.1661 45,27.5C 40.5479,23.9983 35.7146,20.9983 30.5,18.5C 29.925,16.5887 28.925,14.922 27.5,13.5C 27.5,13.1667 27.5,12.8333 27.5,12.5C 28.8675,10.8583 29.2008,9.19161 28.5,7.5C 27.8243,8.60164 27.1577,9.60164 26.5,10.5C 25.9115,7.38965 25.2448,4.38965 24.5,1.5C 23.8333,1.5 23.1667,1.5 22.5,1.5C 23.1667,0.833333 23.8333,0.166667 24.5,-0.5 Z"/></g>
<g><path style="opacity:1" fill="#d4c97c" d="M 22.5,1.5 C 23.1667,1.5 23.8333,1.5 24.5,1.5C 23.8333,14.8333 23.1667,14.8333 22.5,1.5 Z"/></g>
<g><path style="opacity:1" fill="#c2c592" d="M 9.5,6.5 C 12.7441,8.07126 15.4108,10.4046 17.5,13.5C 16.9984,14.521 16.3317,14.6877 15.5,14C 12.8823,11.8943 10.8823,9.3943 9.5,6.5 Z"/></g>
<g><path style="opacity:1" fill="#e1cc6e" d="M 17.5,7.5 C 19.5622,8.50462 20.3955,10.1713 20,12.5C 18.6283,11.0899 17.795,9.42325 17.5,7.5 Z"/></g>
<g><path style="opacity:1" fill="#e1cc6e" d="M 27.5,12.5 C 26.6618,12.1583 26.3284,11.4916 26.5,10.5C 27.1577,9.60164 27.8243,8.60164 28.5,7.5C 29.2008,9.19161 28.8675,10.8583 27.5,12.5 Z"/></g>
<g><path style="opacity:1" fill="#fbd156" d="M 27.5,13.5 C 28.925,14.922 29.925,16.5887 30.5,18.5C 28.401,21.0414 27.0677,24.0414 26.5,27.5C 24.8333,27.5 23.1667,27.5 21.5,27.5C 19.629,27.1412 18.129,26.1412 17,24.5C 15.1716,15.8274 18.6716,12.1607 27.5,13.5 Z"/></g>
<g><path style="opacity:1" fill="#c3c690" d="M 35.5,6.5 C 37.0281,6.51731 37.5281,7.18398 37,8.5C 34.9835,10.684 32.8169,12.684 30.5,14.5C 30.1667,14.1667 29.8333,13.8333 29.5,13.5C 32.2659,11.7407 34.2659,9.40735 35.5,6.5 Z"/></g>
<g><path style="opacity:1" fill="#e5cc6e" d="M 10.5,14.5 C 12.4233,14.795 14.0899,15.6283 15.5,17C 13.1713,17.3955 11.5046,16.5622 10.5,14.5 Z"/></g>
<g><path style="opacity:1" fill="#e6cc6c" d="M 34.5,14.5 C 35.3764,14.3691 36.0431,14.7025 36.5,15.5C 34.9665,16.7362 33.2998,17.2362 31.5,17C 32.5707,16.1482 33.5707,15.3149 34.5,14.5 Z"/></g>
<g><path style="opacity:1" fill="#c5c58c" d="M 4.5,19.5 C 7.89838,19.1796 11.2317,19.513 14.5,20.5C 12.8333,20.8333 11.1667,21.1667 9.5,21.5C 7.3603,21.4439 5.69363,20.7773 4.5,19.5 Z"/></g>
<g><path style="opacity:1" fill="#d9ca7a" d="M 13.5,23.5 C 14.2389,23.369 14.9056,23.5357 15.5,24C 13.9956,25.7878 12.3289,26.2878 10.5,25.5C 11.6016,24.8243 12.6016,24.1577 13.5,23.5 Z"/></g>
<g><path style="opacity:1" fill="#d2c87f" d="M 19.5,28.5 C 20.7122,30.2637 20.3788,31.9303 18.5,33.5C 17.7992,31.8084 18.1325,30.1417 19.5,28.5 Z"/></g>
<g><path style="opacity:1" fill="#dadfe1" d="M 30.5,18.5 C 35.7146,20.9983 40.5479,23.9983 45,27.5C 46.271,31.1661 45.1044,33.6661 41.5,35C 42.056,35.3826 42.3893,35.8826 42.5,36.5C 42.189,37.4778 41.5223,38.1445 40.5,38.5C 39.5713,37.3112 39.238,35.9778 39.5,34.5C 37.8333,34.5 36.1667,34.5 34.5,34.5C 34.1667,39.8333 33.8333,39.8333 33.5,34.5C 30.9592,34.8499 28.6258,34.8499 26.5,34.5C 23.4869,33.6441 22.8203,31.8108 24.5,29C 23.2625,28.7679 22.2625,28.2679 21.5,27.5C 23.1667,27.5 24.8333,27.5 26.5,27.5C 27.0677,24.0414 28.401,21.0414 30.5,18.5 Z"/></g>
<g><path style="opacity:1" fill="#c4c68e" d="M 15.5,26.5 C 17.0281,26.5173 17.5281,27.184 17,28.5C 14.9835,30.684 12.8169,32.684 10.5,34.5C 10.1667,34.1667 9.83333,33.8333 9.5,33.5C 12.2659,31.7407 14.2659,29.4073 15.5,26.5 Z"/></g>
<g><path style="opacity:1" fill="#bde0ff" d="M 26.5,34.5 C 28.6258,34.8499 30.9592,34.8499 33.5,34.5C 33.8333,39.8333 34.1667,39.8333 34.5,34.5C 36.1667,34.5 37.8333,34.5 39.5,34.5C 39.238,35.9778 39.5713,37.3112 40.5,38.5C 41.5223,38.1445 42.189,37.4778 42.5,36.5C 43.5735,37.2506 43.7401,38.2506 43,39.5C 40.7328,40.9348 38.7328,40.6015 37,38.5C 35,41.1667 33,41.1667 31,38.5C 28.7067,41.1339 26.54,41.1339 24.5,38.5C 24.5271,36.8007 25.1938,35.4674 26.5,34.5 Z"/></g>
</svg>
