<?xml version="1.0" encoding="UTF-8"?>
<!DOCTYPE svg PUBLIC "-//W3C//DTD SVG 1.1//EN" "http://www.w3.org/Graphics/SVG/1.1/DTD/svg11.dtd">
<svg xmlns="http://www.w3.org/2000/svg" version="1.1" width="48px" height="42px" style="shape-rendering:geometricPrecision; text-rendering:geometricPrecision; image-rendering:optimizeQuality; fill-rule:evenodd; clip-rule:evenodd" xmlns:xlink="http://www.w3.org/1999/xlink">
<g><path style="opacity:1" fill="#55b1fc" d="M -0.5,-0.5 C 15.5,-0.5 31.5,-0.5 47.5,-0.5C 47.5,13.5 47.5,27.5 47.5,41.5C 31.5,41.5 15.5,41.5 -0.5,41.5C -0.5,27.5 -0.5,13.5 -0.5,-0.5 Z"/></g>
<g><path style="opacity:1" fill="#b5c39c" d="M 22.5,1.5 C 23.7773,2.69363 24.4439,4.3603 24.5,6.5C 24.1667,8.16667 23.8333,9.83333 23.5,11.5C 22.513,8.23171 22.1796,4.89838 22.5,1.5 Z"/></g>
<g><path style="opacity:1" fill="#b3c1a8" d="M 9.5,6.5 C 12.7441,8.07126 15.4108,10.4046 17.5,13.5C 16.9984,14.521 16.3317,14.6877 15.5,14C 12.8823,11.8943 10.8823,9.3943 9.5,6.5 Z"/></g>
<g><path style="opacity:1" fill="#cec788" d="M 27.5,7.5 C 29.6196,8.85002 29.453,10.5167 27,12.5C 27.0187,10.8925 27.1854,9.22586 27.5,7.5 Z"/></g>
<g><path style="opacity:1" fill="#cbc68b" d="M 18.5,8.5 C 19.8478,9.52684 20.3478,10.8602 20,12.5C 18.8118,11.4366 18.3118,10.1033 18.5,8.5 Z"/></g>
<g><path style="opacity:1" fill="#b6c1a6" d="M 35.5,6.5 C 37.0281,6.51731 37.5281,7.18398 37,8.5C 34.9835,10.684 32.8169,12.684 30.5,14.5C 30.1667,14.1667 29.8333,13.8333 29.5,13.5C 32.2659,11.7407 34.2659,9.40735 35.5,6.5 Z"/></g>
<g><path style="opacity:1" fill="#fbd058" d="M 30.5,18.5 C 28.401,21.0414 27.0677,24.0414 26.5,27.5C 24.8333,27.5 23.1667,27.5 21.5,27.5C 19.2475,27.0844 17.7475,25.751 17,23.5C 15.6727,15.164 19.1727,11.9974 27.5,14C 29.1412,15.129 30.1412,16.629 30.5,18.5 Z"/></g>
<g><path style="opacity:1" fill="#cbc78a" d="M 11.5,16.5 C 12.8488,15.2035 14.1821,15.3702 15.5,17C 14.1807,17.195 12.8474,17.0283 11.5,16.5 Z"/></g>
<g><path style="opacity:1" fill="#cac68b" d="M 32.5,15.5 C 36.3393,15.6121 36.3393,16.2787 32.5,17.5C 31.537,17.0302 31.537,16.3635 32.5,15.5 Z"/></g>
<g><path style="opacity:1" fill="#b6c39c" d="M 4.5,19.5 C 7.89838,19.1796 11.2317,19.513 14.5,20.5C 12.8333,20.8333 11.1667,21.1667 9.5,21.5C 7.3603,21.4439 5.69363,20.7773 4.5,19.5 Z"/></g>
<g><path style="opacity:1" fill="#bec497" d="M 13.5,23.5 C 14.2389,23.369 14.9056,23.5357 15.5,24C 13.9956,25.7878 12.3289,26.2878 10.5,25.5C 11.6016,24.8243 12.6016,24.1577 13.5,23.5 Z"/></g>
<g><path style="opacity:1" fill="#e2eaee" d="M 30.5,18.5 C 32.5469,19.8318 34.5469,21.1652 36.5,22.5C 39.0297,24.5299 41.863,26.1965 45,27.5C 45.9556,30.9222 44.7889,33.2555 41.5,34.5C 40.8333,34.5 40.1667,34.5 39.5,34.5C 38.1667,34.5 36.8333,34.5 35.5,34.5C 34.8333,34.5 34.1667,34.5 33.5,34.5C 32.1667,34.5 30.8333,34.5 29.5,34.5C 28.8333,34.5 28.1667,34.5 27.5,34.5C 23.65,34.2993 22.65,32.4659 24.5,29C 23.2625,28.7679 22.2625,28.2679 21.5,27.5C 23.1667,27.5 24.8333,27.5 26.5,27.5C 27.0677,24.0414 28.401,21.0414 30.5,18.5 Z"/></g>
<g><path style="opacity:1" fill="#cdcdcd" d="M 36.5,22.5 C 37.7829,24.6064 38.6162,26.9398 39,29.5C 39.4828,28.552 39.6495,27.552 39.5,26.5C 43.0681,26.7593 44.4015,28.7593 43.5,32.5C 37.1318,32.8297 30.7985,32.4963 24.5,31.5C 26.7977,29.0763 28.4643,26.2429 29.5,23C 31.8098,22.5034 34.1432,22.3367 36.5,22.5 Z"/></g>
<g><path style="opacity:1" fill="#b8c2a4" d="M 15.5,26.5 C 17.0281,26.5173 17.5281,27.184 17,28.5C 14.9835,30.684 12.8169,32.684 10.5,34.5C 10.1667,34.1667 9.83333,33.8333 9.5,33.5C 12.2659,31.7407 14.2659,29.4073 15.5,26.5 Z"/></g>
<g><path style="opacity:1" fill="#cec788" d="M 19.5,28.5 C 20.3251,30.1252 19.9918,31.7918 18.5,33.5C 17.7992,31.8084 18.1325,30.1417 19.5,28.5 Z"/></g>
<g><path style="opacity:1" fill="#084c83" d="M 27.5,34.5 C 28.1667,34.5 28.8333,34.5 29.5,34.5C 31.0376,36.5514 30.7043,38.218 28.5,39.5C 26.2957,38.218 25.9624,36.5514 27.5,34.5 Z"/></g>
<g><path style="opacity:1" fill="#084c82" d="M 33.5,34.5 C 34.1667,34.5 34.8333,34.5 35.5,34.5C 37.0376,36.5514 36.7043,38.218 34.5,39.5C 32.2957,38.218 31.9624,36.5514 33.5,34.5 Z"/></g>
<g><path style="opacity:1" fill="#074c81" d="M 39.5,34.5 C 40.1667,34.5 40.8333,34.5 41.5,34.5C 43.0376,36.5514 42.7043,38.218 40.5,39.5C 38.2957,38.218 37.9624,36.5514 39.5,34.5 Z"/></g>
</svg>
