<?xml version="1.0" encoding="UTF-8"?>
<!DOCTYPE svg PUBLIC "-//W3C//DTD SVG 1.1//EN" "http://www.w3.org/Graphics/SVG/1.1/DTD/svg11.dtd">
<svg xmlns="http://www.w3.org/2000/svg" version="1.1" width="48px" height="42px" style="shape-rendering:geometricPrecision; text-rendering:geometricPrecision; image-rendering:optimizeQuality; fill-rule:evenodd; clip-rule:evenodd" xmlns:xlink="http://www.w3.org/1999/xlink">
<g><path style="opacity:1" fill="#53b1fd" d="M -0.5,-0.5 C 7.83333,-0.5 16.1667,-0.5 24.5,-0.5C 23.8333,0.166667 23.1667,0.833333 22.5,1.5C 23.1667,14.8333 23.8333,14.8333 24.5,1.5C 25.2448,4.38965 25.9115,7.38965 26.5,10.5C 26.3284,11.4916 26.6618,12.1583 27.5,12.5C 27.5,12.8333 27.5,13.1667 27.5,13.5C 25.5,13.5 23.5,13.5 21.5,13.5C 19.3023,13.5912 18.9689,12.9245 20.5,11.5C 18.5092,6.19024 17.8425,6.19024 18.5,11.5C 17.6522,12.625 16.6522,12.625 15.5,11.5C 14.0992,8.68546 12.0992,7.35213 9.5,7.5C 10.8569,9.18561 12.1902,10.8523 13.5,12.5C 8.28583,14.2359 5.45249,17.9026 5,23.5C 2.08986,24.4503 0.923194,26.4503 1.5,29.5C 0.833333,28.5 0.166667,27.5 -0.5,26.5C -0.5,17.5 -0.5,8.5 -0.5,-0.5 Z"/></g>
<g><path style="opacity:1" fill="#54b1fc" d="M 24.5,-0.5 C 32.1667,-0.5 39.8333,-0.5 47.5,-0.5C 47.5,10.1667 47.5,20.8333 47.5,31.5C 46.8333,31.5 46.1667,31.5 45.5,31.5C 45.7851,27.2834 43.7851,25.1168 39.5,25C 38.695,23.8873 38.0283,22.7206 37.5,21.5C 39.288,21.7852 40.9547,21.4519 42.5,20.5C 39.0202,19.1944 35.6868,19.1944 32.5,20.5C 31.8333,19.8333 31.1667,19.1667 30.5,18.5C 29.925,16.5887 28.925,14.922 27.5,13.5C 27.5,13.1667 27.5,12.8333 27.5,12.5C 28.8675,10.8583 29.2008,9.19161 28.5,7.5C 27.8243,8.60164 27.1577,9.60164 26.5,10.5C 25.9115,7.38965 25.2448,4.38965 24.5,1.5C 23.8333,1.5 23.1667,1.5 22.5,1.5C 23.1667,0.833333 23.8333,0.166667 24.5,-0.5 Z"/></g>
<g><path style="opacity:1" fill="#d4c97c" d="M 22.5,1.5 C 23.1667,1.5 23.8333,1.5 24.5,1.5C 23.8333,14.8333 23.1667,14.8333 22.5,1.5 Z"/></g>
<g><path style="opacity:1" fill="#c5c791" d="M 15.5,11.5 C 15.1583,12.3382 14.4916,12.6716 13.5,12.5C 12.1902,10.8523 10.8569,9.18561 9.5,7.5C 12.0992,7.35213 14.0992,8.68546 15.5,11.5 Z"/></g>
<g><path style="opacity:1" fill="#e5cd6a" d="M 20.5,11.5 C 19.8333,11.5 19.1667,11.5 18.5,11.5C 17.8425,6.19024 18.5092,6.19024 20.5,11.5 Z"/></g>
<g><path style="opacity:1" fill="#e1cc6e" d="M 27.5,12.5 C 26.6618,12.1583 26.3284,11.4916 26.5,10.5C 27.1577,9.60164 27.8243,8.60164 28.5,7.5C 29.2008,9.19161 28.8675,10.8583 27.5,12.5 Z"/></g>
<g><path style="opacity:1" fill="#fbd25b" d="M 21.5,13.5 C 23.5,13.5 25.5,13.5 27.5,13.5C 28.925,14.922 29.925,16.5887 30.5,18.5C 30.631,19.2389 30.4643,19.9056 30,20.5C 28.3005,19.5939 26.4672,19.2606 24.5,19.5C 24.385,17.0532 23.385,15.0532 21.5,13.5 Z"/></g>
<g><path style="opacity:1" fill="#c3c690" d="M 35.5,6.5 C 37.0281,6.51731 37.5281,7.18398 37,8.5C 34.9835,10.684 32.8169,12.684 30.5,14.5C 30.1667,14.1667 29.8333,13.8333 29.5,13.5C 32.2659,11.7407 34.2659,9.40735 35.5,6.5 Z"/></g>
<g><path style="opacity:1" fill="#eaf0f2" d="M 15.5,11.5 C 16.6522,12.625 17.6522,12.625 18.5,11.5C 19.1667,11.5 19.8333,11.5 20.5,11.5C 18.9689,12.9245 19.3023,13.5912 21.5,13.5C 23.385,15.0532 24.385,17.0532 24.5,19.5C 20.4724,12.928 15.3057,11.928 9,16.5C 7.71138,19.3508 7.21138,22.3508 7.5,25.5C 6.16667,25.5 4.83333,25.5 3.5,25.5C 3.5,27.1667 3.5,28.8333 3.5,30.5C 10.175,30.6663 16.8417,30.4996 23.5,30C 25.4682,28.5385 26.8016,26.7052 27.5,24.5C 27.7377,27.4082 26.7377,29.7415 24.5,31.5C 24.7093,32.086 25.0426,32.586 25.5,33C 31.3482,33.1728 37.0149,33.6728 42.5,34.5C 36.4908,34.6662 30.4908,34.4995 24.5,34C 23.9558,33.2828 23.2891,32.7828 22.5,32.5C 21.8333,32.5 21.1667,32.5 20.5,32.5C 19.1667,32.5 17.8333,32.5 16.5,32.5C 15.8333,32.5 15.1667,32.5 14.5,32.5C 13.1667,32.5 11.8333,32.5 10.5,32.5C 9.83333,32.5 9.16667,32.5 8.5,32.5C 5.36947,33.0922 3.03614,32.0922 1.5,29.5C 0.923194,26.4503 2.08986,24.4503 5,23.5C 5.45249,17.9026 8.28583,14.2359 13.5,12.5C 14.4916,12.6716 15.1583,12.3382 15.5,11.5 Z"/></g>
<g><path style="opacity:1" fill="#b3b3b3" d="M 24.5,19.5 C 24.3398,21.1992 24.5065,22.8659 25,24.5C 25.4828,23.552 25.6495,22.552 25.5,21.5C 26.552,21.3505 27.552,21.5172 28.5,22C 27.7476,22.6708 27.4142,23.5041 27.5,24.5C 26.8016,26.7052 25.4682,28.5385 23.5,30C 16.8417,30.4996 10.175,30.6663 3.5,30.5C 3.5,28.8333 3.5,27.1667 3.5,25.5C 4.83333,25.5 6.16667,25.5 7.5,25.5C 7.21138,22.3508 7.71138,19.3508 9,16.5C 15.3057,11.928 20.4724,12.928 24.5,19.5 Z"/></g>
<g><path style="opacity:1" fill="#e6cc6c" d="M 34.5,14.5 C 35.3764,14.3691 36.0431,14.7025 36.5,15.5C 34.9665,16.7362 33.2998,17.2362 31.5,17C 32.5707,16.1482 33.5707,15.3149 34.5,14.5 Z"/></g>
<g><path style="opacity:1" fill="#c8c88d" d="M 32.5,20.5 C 35.6868,19.1944 39.0202,19.1944 42.5,20.5C 40.9547,21.4519 39.288,21.7852 37.5,21.5C 35.7839,21.3713 34.1172,21.038 32.5,20.5 Z"/></g>
<g><path style="opacity:1" fill="#d3d4d4" d="M 30.5,18.5 C 31.1667,19.1667 31.8333,19.8333 32.5,20.5C 34.1172,21.038 35.7839,21.3713 37.5,21.5C 38.0283,22.7206 38.695,23.8873 39.5,25C 43.7851,25.1168 45.7851,27.2834 45.5,31.5C 44.8333,32.8333 43.8333,33.8333 42.5,34.5C 37.0149,33.6728 31.3482,33.1728 25.5,33C 25.0426,32.586 24.7093,32.086 24.5,31.5C 26.7377,29.7415 27.7377,27.4082 27.5,24.5C 27.4142,23.5041 27.7476,22.6708 28.5,22C 27.552,21.5172 26.552,21.3505 25.5,21.5C 25.6495,22.552 25.4828,23.552 25,24.5C 24.5065,22.8659 24.3398,21.1992 24.5,19.5C 26.4672,19.2606 28.3005,19.5939 30,20.5C 30.4643,19.9056 30.631,19.2389 30.5,18.5 Z"/></g>
<g><path style="opacity:1" fill="#51affc" d="M -0.5,26.5 C 0.166667,27.5 0.833333,28.5 1.5,29.5C 3.03614,32.0922 5.36947,33.0922 8.5,32.5C 7.69929,34.0418 7.36596,35.7085 7.5,37.5C 11.3304,37.5042 12.3304,35.8375 10.5,32.5C 11.8333,32.5 13.1667,32.5 14.5,32.5C 13.6993,34.0418 13.366,35.7085 13.5,37.5C 17.2838,37.4747 18.2838,35.8081 16.5,32.5C 17.8333,32.5 19.1667,32.5 20.5,32.5C 19.6993,34.0418 19.366,35.7085 19.5,37.5C 23.3304,37.5042 24.3304,35.8375 22.5,32.5C 23.2891,32.7828 23.9558,33.2828 24.5,34C 30.4908,34.4995 36.4908,34.6662 42.5,34.5C 43.8333,33.8333 44.8333,32.8333 45.5,31.5C 46.1667,31.5 46.8333,31.5 47.5,31.5C 47.5,34.8333 47.5,38.1667 47.5,41.5C 31.5,41.5 15.5,41.5 -0.5,41.5C -0.5,36.5 -0.5,31.5 -0.5,26.5 Z"/></g>
<g><path style="opacity:1" fill="#064579" d="M 8.5,32.5 C 9.16667,32.5 9.83333,32.5 10.5,32.5C 12.3304,35.8375 11.3304,37.5042 7.5,37.5C 7.36596,35.7085 7.69929,34.0418 8.5,32.5 Z"/></g>
<g><path style="opacity:1" fill="#07477c" d="M 14.5,32.5 C 15.1667,32.5 15.8333,32.5 16.5,32.5C 18.2838,35.8081 17.2838,37.4747 13.5,37.5C 13.366,35.7085 13.6993,34.0418 14.5,32.5 Z"/></g>
<g><path style="opacity:1" fill="#064478" d="M 20.5,32.5 C 21.1667,32.5 21.8333,32.5 22.5,32.5C 24.3304,35.8375 23.3304,37.5042 19.5,37.5C 19.366,35.7085 19.6993,34.0418 20.5,32.5 Z"/></g>
</svg>
