<?xml version="1.0" encoding="UTF-8"?>
<!DOCTYPE svg PUBLIC "-//W3C//DTD SVG 1.1//EN" "http://www.w3.org/Graphics/SVG/1.1/DTD/svg11.dtd">
<svg xmlns="http://www.w3.org/2000/svg" version="1.1" width="48px" height="42px" style="shape-rendering:geometricPrecision; text-rendering:geometricPrecision; image-rendering:optimizeQuality; fill-rule:evenodd; clip-rule:evenodd" xmlns:xlink="http://www.w3.org/1999/xlink">
<g><path style="opacity:1" fill="#53b1fe" d="M -0.5,-0.5 C 7.83333,-0.5 16.1667,-0.5 24.5,-0.5C 23.8333,0.166667 23.1667,0.833333 22.5,1.5C 23.1667,14.8333 23.8333,14.8333 24.5,1.5C 25.2448,4.38965 25.9115,7.38965 26.5,10.5C 26.3284,11.4916 26.6618,12.1583 27.5,12.5C 27.5,12.8333 27.5,13.1667 27.5,13.5C 25.5,13.5 23.5,13.5 21.5,13.5C 19.3023,13.5912 18.9689,12.9245 20.5,11.5C 18.5092,6.19024 17.8425,6.19024 18.5,11.5C 17.6522,12.625 16.6522,12.625 15.5,11.5C 14.0992,8.68546 12.0992,7.35213 9.5,7.5C 10.8569,9.18561 12.1902,10.8523 13.5,12.5C 8.28583,14.2359 5.45249,17.9026 5,23.5C 1.79354,24.8197 0.79354,27.1531 2,30.5C 3.44425,32.1554 5.27759,32.822 7.5,32.5C 4.5203,35.1999 4.85364,37.1999 8.5,38.5C 10.644,37.3121 12.8107,37.3121 15,38.5C 16.3261,38.2451 17.3261,37.5784 18,36.5C 19.7328,38.6015 21.7328,38.9348 24,37.5C 25.8265,41.0374 28.1598,41.3707 31,38.5C 33,41.1667 35,41.1667 37,38.5C 38.7328,40.6015 40.7328,40.9348 43,39.5C 43.7401,38.2506 43.5735,37.2506 42.5,36.5C 42.3893,35.8826 42.056,35.3826 41.5,35C 43.3237,34.34 44.657,33.1733 45.5,31.5C 46.1667,31.5 46.8333,31.5 47.5,31.5C 47.5,34.8333 47.5,38.1667 47.5,41.5C 31.5,41.5 15.5,41.5 -0.5,41.5C -0.5,27.5 -0.5,13.5 -0.5,-0.5 Z"/></g>
<g><path style="opacity:1" fill="#54b1fc" d="M 24.5,-0.5 C 32.1667,-0.5 39.8333,-0.5 47.5,-0.5C 47.5,10.1667 47.5,20.8333 47.5,31.5C 46.8333,31.5 46.1667,31.5 45.5,31.5C 45.7851,27.2834 43.7851,25.1168 39.5,25C 38.695,23.8873 38.0283,22.7206 37.5,21.5C 39.288,21.7852 40.9547,21.4519 42.5,20.5C 39.0202,19.1944 35.6868,19.1944 32.5,20.5C 31.8333,19.8333 31.1667,19.1667 30.5,18.5C 29.925,16.5887 28.925,14.922 27.5,13.5C 27.5,13.1667 27.5,12.8333 27.5,12.5C 28.8675,10.8583 29.2008,9.19161 28.5,7.5C 27.8243,8.60164 27.1577,9.60164 26.5,10.5C 25.9115,7.38965 25.2448,4.38965 24.5,1.5C 23.8333,1.5 23.1667,1.5 22.5,1.5C 23.1667,0.833333 23.8333,0.166667 24.5,-0.5 Z"/></g>
<g><path style="opacity:1" fill="#d4c97c" d="M 22.5,1.5 C 23.1667,1.5 23.8333,1.5 24.5,1.5C 23.8333,14.8333 23.1667,14.8333 22.5,1.5 Z"/></g>
<g><path style="opacity:1" fill="#c5c791" d="M 15.5,11.5 C 15.1583,12.3382 14.4916,12.6716 13.5,12.5C 12.1902,10.8523 10.8569,9.18561 9.5,7.5C 12.0992,7.35213 14.0992,8.68546 15.5,11.5 Z"/></g>
<g><path style="opacity:1" fill="#e5cd6a" d="M 20.5,11.5 C 19.8333,11.5 19.1667,11.5 18.5,11.5C 17.8425,6.19024 18.5092,6.19024 20.5,11.5 Z"/></g>
<g><path style="opacity:1" fill="#e1cc6e" d="M 27.5,12.5 C 26.6618,12.1583 26.3284,11.4916 26.5,10.5C 27.1577,9.60164 27.8243,8.60164 28.5,7.5C 29.2008,9.19161 28.8675,10.8583 27.5,12.5 Z"/></g>
<g><path style="opacity:1" fill="#fbd25b" d="M 21.5,13.5 C 23.5,13.5 25.5,13.5 27.5,13.5C 28.925,14.922 29.925,16.5887 30.5,18.5C 30.631,19.2389 30.4643,19.9056 30,20.5C 28.3005,19.5939 26.4672,19.2606 24.5,19.5C 24.385,17.0532 23.385,15.0532 21.5,13.5 Z"/></g>
<g><path style="opacity:1" fill="#c3c690" d="M 35.5,6.5 C 37.0281,6.51731 37.5281,7.18398 37,8.5C 34.9835,10.684 32.8169,12.684 30.5,14.5C 30.1667,14.1667 29.8333,13.8333 29.5,13.5C 32.2659,11.7407 34.2659,9.40735 35.5,6.5 Z"/></g>
<g><path style="opacity:1" fill="#e6cc6c" d="M 34.5,14.5 C 35.3764,14.3691 36.0431,14.7025 36.5,15.5C 34.9665,16.7362 33.2998,17.2362 31.5,17C 32.5707,16.1482 33.5707,15.3149 34.5,14.5 Z"/></g>
<g><path style="opacity:1" fill="#c8c88d" d="M 32.5,20.5 C 35.6868,19.1944 39.0202,19.1944 42.5,20.5C 40.9547,21.4519 39.288,21.7852 37.5,21.5C 35.7839,21.3713 34.1172,21.038 32.5,20.5 Z"/></g>
<g><path style="opacity:1" fill="#dadddf" d="M 15.5,11.5 C 16.6522,12.625 17.6522,12.625 18.5,11.5C 19.1667,11.5 19.8333,11.5 20.5,11.5C 18.9689,12.9245 19.3023,13.5912 21.5,13.5C 23.385,15.0532 24.385,17.0532 24.5,19.5C 26.4672,19.2606 28.3005,19.5939 30,20.5C 30.4643,19.9056 30.631,19.2389 30.5,18.5C 31.1667,19.1667 31.8333,19.8333 32.5,20.5C 34.1172,21.038 35.7839,21.3713 37.5,21.5C 38.0283,22.7206 38.695,23.8873 39.5,25C 43.7851,25.1168 45.7851,27.2834 45.5,31.5C 44.657,33.1733 43.3237,34.34 41.5,35C 42.056,35.3826 42.3893,35.8826 42.5,36.5C 42.189,37.4778 41.5223,38.1445 40.5,38.5C 39.5713,37.3112 39.238,35.9778 39.5,34.5C 37.8333,34.5 36.1667,34.5 34.5,34.5C 34.1667,39.8333 33.8333,39.8333 33.5,34.5C 30.0031,35.7048 27.0031,35.2048 24.5,33C 18.8431,32.5006 13.1764,32.3339 7.5,32.5C 5.27759,32.822 3.44425,32.1554 2,30.5C 0.79354,27.1531 1.79354,24.8197 5,23.5C 5.45249,17.9026 8.28583,14.2359 13.5,12.5C 14.4916,12.6716 15.1583,12.3382 15.5,11.5 Z"/></g>
<g><path style="opacity:1" fill="#b3b3b3" d="M 24.5,19.5 C 24.3398,21.1992 24.5065,22.8659 25,24.5C 25.4828,23.552 25.6495,22.552 25.5,21.5C 26.552,21.3505 27.552,21.5172 28.5,22C 27.5544,25.1546 25.8877,27.8213 23.5,30C 16.8417,30.4996 10.175,30.6663 3.5,30.5C 3.5,28.8333 3.5,27.1667 3.5,25.5C 4.83333,25.5 6.16667,25.5 7.5,25.5C 6.2795,16.8883 9.94617,13.055 18.5,14C 21.0226,15.3597 23.0226,17.193 24.5,19.5 Z"/></g>
<g><path style="opacity:1" fill="#bcdfff" d="M 7.5,32.5 C 13.1764,32.3339 18.8431,32.5006 24.5,33C 27.0031,35.2048 30.0031,35.7048 33.5,34.5C 33.8333,39.8333 34.1667,39.8333 34.5,34.5C 36.1667,34.5 37.8333,34.5 39.5,34.5C 39.238,35.9778 39.5713,37.3112 40.5,38.5C 41.5223,38.1445 42.189,37.4778 42.5,36.5C 43.5735,37.2506 43.7401,38.2506 43,39.5C 40.7328,40.9348 38.7328,40.6015 37,38.5C 35,41.1667 33,41.1667 31,38.5C 28.1598,41.3707 25.8265,41.0374 24,37.5C 21.7328,38.9348 19.7328,38.6015 18,36.5C 17.3261,37.5784 16.3261,38.2451 15,38.5C 12.8107,37.3121 10.644,37.3121 8.5,38.5C 4.85364,37.1999 4.5203,35.1999 7.5,32.5 Z"/></g>
</svg>
