<?xml version="1.0" encoding="UTF-8"?>
<!DOCTYPE svg PUBLIC "-//W3C//DTD SVG 1.1//EN" "http://www.w3.org/Graphics/SVG/1.1/DTD/svg11.dtd">
<svg xmlns="http://www.w3.org/2000/svg" version="1.1" width="48px" height="42px" style="shape-rendering:geometricPrecision; text-rendering:geometricPrecision; image-rendering:optimizeQuality; fill-rule:evenodd; clip-rule:evenodd" xmlns:xlink="http://www.w3.org/1999/xlink">
<g><path style="opacity:1" fill="#53b1fd" d="M -0.5,-0.5 C 15.5,-0.5 31.5,-0.5 47.5,-0.5C 47.5,13.5 47.5,27.5 47.5,41.5C 31.5,41.5 15.5,41.5 -0.5,41.5C -0.5,27.5 -0.5,13.5 -0.5,-0.5 Z"/></g>
<g><path style="opacity:1" fill="#b5c39c" d="M 22.5,1.5 C 23.7773,2.69363 24.4439,4.3603 24.5,6.5C 24.1667,8.16667 23.8333,9.83333 23.5,11.5C 22.513,8.23171 22.1796,4.89838 22.5,1.5 Z"/></g>
<g><path style="opacity:1" fill="#cec788" d="M 27.5,7.5 C 29.6196,8.85002 29.453,10.5167 27,12.5C 27.0187,10.8925 27.1854,9.22586 27.5,7.5 Z"/></g>
<g><path style="opacity:1" fill="#cbc68b" d="M 18.5,8.5 C 19.8478,9.52684 20.3478,10.8602 20,12.5C 18.8118,11.4366 18.3118,10.1033 18.5,8.5 Z"/></g>
<g><path style="opacity:1" fill="#b6c1a6" d="M 35.5,6.5 C 37.0281,6.51731 37.5281,7.18398 37,8.5C 34.9835,10.684 32.8169,12.684 30.5,14.5C 30.1667,14.1667 29.8333,13.8333 29.5,13.5C 32.2659,11.7407 34.2659,9.40735 35.5,6.5 Z"/></g>
<g><path style="opacity:1" fill="#fad15f" d="M 21.5,13.5 C 26.1701,12.4153 29.1701,14.082 30.5,18.5C 30.631,19.2389 30.4643,19.9056 30,20.5C 28.1746,19.8971 26.3413,19.2304 24.5,18.5C 23.7401,16.6396 22.7401,14.973 21.5,13.5 Z"/></g>
<g><path style="opacity:1" fill="#bebdbd" d="M 21.5,13.5 C 22.7401,14.973 23.7401,16.6396 24.5,18.5C 26.3413,19.2304 28.1746,19.8971 30,20.5C 30.4643,19.9056 30.631,19.2389 30.5,18.5C 31.1667,19.5 31.8333,20.5 32.5,21.5C 33.4787,23.1454 34.812,24.4787 36.5,25.5C 35.7261,26.7112 34.8928,26.7112 34,25.5C 33.8333,26.1667 33.6667,26.8333 33.5,27.5C 34.4056,29.7475 35.7389,31.7475 37.5,33.5C 36.9984,34.521 36.3317,34.6877 35.5,34C 34.3333,32.8333 33.1667,31.6667 32,30.5C 30.6861,31.3128 29.5195,32.3128 28.5,33.5C 26.5914,32.6518 24.5914,32.3184 22.5,32.5C 21.8333,32.5 21.1667,32.5 20.5,32.5C 19.1667,32.5 17.8333,32.5 16.5,32.5C 16.1667,32.5 15.8333,32.5 15.5,32.5C 16.2279,30.2654 17.5612,28.4321 19.5,27C 18.1667,26.6667 16.8333,26.3333 15.5,26C 16.9606,23.5794 18.2939,21.0794 19.5,18.5C 17.6471,17.2404 15.8138,17.2404 14,18.5C 13.1275,21.6181 11.9608,24.6181 10.5,27.5C 11.325,28.3857 12.325,28.719 13.5,28.5C 13.7373,29.791 13.404,30.791 12.5,31.5C 9.7131,30.5233 6.7131,30.19 3.5,30.5C 3.5,28.8333 3.5,27.1667 3.5,25.5C 4.83333,25.5 6.16667,25.5 7.5,25.5C 6.94386,21.3344 7.94386,17.6677 10.5,14.5C 11.0577,13.2101 12.0577,12.3768 13.5,12C 12.3333,10.8333 11.1667,9.66667 10,8.5C 9.31232,7.66828 9.47899,7.00161 10.5,6.5C 12.6499,8.14905 14.6499,9.98239 16.5,12C 18.0249,13.0086 19.6916,13.5086 21.5,13.5 Z"/></g>
<g><path style="opacity:1" fill="#cdc789" d="M 34.5,14.5 C 35.3764,14.3691 36.0431,14.7025 36.5,15.5C 34.9665,16.7362 33.2998,17.2362 31.5,17C 32.5707,16.1482 33.5707,15.3149 34.5,14.5 Z"/></g>
<g><path style="opacity:1" fill="#f7449c" d="M 15.5,32.5 C 14.5,32.8333 13.8333,33.5 13.5,34.5C 12.8333,34.8333 12.1667,35.1667 11.5,35.5C 11.5569,34.391 11.8902,33.391 12.5,32.5C 12.5,32.1667 12.5,31.8333 12.5,31.5C 13.404,30.791 13.7373,29.791 13.5,28.5C 12.325,28.719 11.325,28.3857 10.5,27.5C 11.9608,24.6181 13.1275,21.6181 14,18.5C 15.8138,17.2404 17.6471,17.2404 19.5,18.5C 18.2939,21.0794 16.9606,23.5794 15.5,26C 16.8333,26.3333 18.1667,26.6667 19.5,27C 17.5612,28.4321 16.2279,30.2654 15.5,32.5 Z"/></g>
<g><path style="opacity:1" fill="#b6c39c" d="M 32.5,21.5 C 33.6936,20.2227 35.3603,19.5561 37.5,19.5C 39.1667,19.8333 40.8333,20.1667 42.5,20.5C 39.2317,21.487 35.8984,21.8204 32.5,21.5 Z"/></g>
<g><path style="opacity:1" fill="#dae3eb" d="M 10.5,14.5 C 7.94386,17.6677 6.94386,21.3344 7.5,25.5C 6.16667,25.5 4.83333,25.5 3.5,25.5C 3.5,27.1667 3.5,28.8333 3.5,30.5C 6.7131,30.19 9.7131,30.5233 12.5,31.5C 12.5,31.8333 12.5,32.1667 12.5,32.5C 11.1667,32.5 9.83333,32.5 8.5,32.5C 4.82872,33.0015 2.49539,31.5015 1.5,28C 1.91943,25.9144 3.08609,24.4144 5,23.5C 5.43786,20.624 6.43786,17.9573 8,15.5C 8.67076,14.7476 9.5041,14.4142 10.5,14.5 Z"/></g>
<g><path style="opacity:1" fill="#3a5895" d="M 8.5,32.5 C 9.83333,32.5 11.1667,32.5 12.5,32.5C 11.8902,33.391 11.5569,34.391 11.5,35.5C 11.3957,37.9728 10.3957,38.6394 8.5,37.5C 7.33363,35.8327 7.33363,34.166 8.5,32.5 Z"/></g>
<g><path style="opacity:1" fill="#0d4e85" d="M 15.5,32.5 C 15.8333,32.5 16.1667,32.5 16.5,32.5C 18.2838,35.8081 17.2838,37.4747 13.5,37.5C 13.5,36.5 13.5,35.5 13.5,34.5C 13.8333,33.5 14.5,32.8333 15.5,32.5 Z"/></g>
<g><path style="opacity:1" fill="#094d83" d="M 20.5,32.5 C 21.1667,32.5 21.8333,32.5 22.5,32.5C 24.0376,34.5514 23.7043,36.218 21.5,37.5C 19.2957,36.218 18.9624,34.5514 20.5,32.5 Z"/></g>
</svg>
