<?xml version="1.0" encoding="UTF-8"?>
<!DOCTYPE svg PUBLIC "-//W3C//DTD SVG 1.1//EN" "http://www.w3.org/Graphics/SVG/1.1/DTD/svg11.dtd">
<svg xmlns="http://www.w3.org/2000/svg" version="1.1" width="48px" height="42px" style="shape-rendering:geometricPrecision; text-rendering:geometricPrecision; image-rendering:optimizeQuality; fill-rule:evenodd; clip-rule:evenodd" xmlns:xlink="http://www.w3.org/1999/xlink">
<g><path style="opacity:1" fill="#52affc" d="M -0.5,-0.5 C 15.5,-0.5 31.5,-0.5 47.5,-0.5C 47.5,13.5 47.5,27.5 47.5,41.5C 31.5,41.5 15.5,41.5 -0.5,41.5C -0.5,27.5 -0.5,13.5 -0.5,-0.5 Z"/></g>
<g><path style="opacity:1" fill="#e7edf2" d="M 44.5,17.5 C 42.5214,15.8325 40.188,15.1658 37.5,15.5C 37.6495,16.552 37.4828,17.552 37,18.5C 35.2106,8.09965 30.2106,6.09965 22,12.5C 22.0481,15.5685 20.8814,17.9018 18.5,19.5C 19.4099,17.8249 19.4099,15.8249 18.5,13.5C 20.6278,11.5542 22.9612,9.72089 25.5,8C 30.9303,6.38502 34.9303,8.05169 37.5,13C 39.6079,13.3599 41.6079,14.0266 43.5,15C 44.2524,15.6708 44.5858,16.5041 44.5,17.5 Z"/></g>
<g><path style="opacity:1" fill="#b9b8b8" d="M 44.5,17.5 C 44.8362,22.0001 42.8362,23.8334 38.5,23C 37.0899,21.6283 35.4233,20.795 33.5,20.5C 33.8039,19.8501 34.1373,19.1835 34.5,18.5C 32.9255,17.3691 31.2588,17.2025 29.5,18C 27.6738,21.3118 26.3405,24.8118 25.5,28.5C 24.7109,28.7828 24.0442,29.2828 23.5,30C 16.8417,30.4996 10.175,30.6663 3.5,30.5C 3.5,28.8333 3.5,27.1667 3.5,25.5C 4.83333,25.5 6.16667,25.5 7.5,25.5C 6.94386,21.3344 7.94386,17.6677 10.5,14.5C 11.4919,12.9735 12.9919,12.3068 15,12.5C 16.3847,12.5143 17.5514,12.8476 18.5,13.5C 19.4099,15.8249 19.4099,17.8249 18.5,19.5C 20.8814,17.9018 22.0481,15.5685 22,12.5C 30.2106,6.09965 35.2106,8.09965 37,18.5C 37.4828,17.552 37.6495,16.552 37.5,15.5C 40.188,15.1658 42.5214,15.8325 44.5,17.5 Z"/></g>
<g><path style="opacity:1" fill="#f8449d" d="M 33.5,20.5 C 33.5,20.8333 33.5,21.1667 33.5,21.5C 30.5804,23.7182 30.9137,25.3849 34.5,26.5C 32.7224,28.264 31.3891,30.264 30.5,32.5C 29.5,32.8333 28.8333,33.5 28.5,34.5C 27.5,35.1667 26.5,35.8333 25.5,36.5C 25.5,35.8333 25.5,35.1667 25.5,34.5C 26.7255,33.063 27.7255,31.3964 28.5,29.5C 27.675,28.6143 26.675,28.281 25.5,28.5C 26.3405,24.8118 27.6738,21.3118 29.5,18C 31.2588,17.2025 32.9255,17.3691 34.5,18.5C 34.1373,19.1835 33.8039,19.8501 33.5,20.5 Z"/></g>
<g><path style="opacity:1" fill="#b6b3b4" d="M 33.5,21.5 C 37.0083,22.8035 38.8416,25.4702 39,29.5C 39.4828,28.552 39.6495,27.552 39.5,26.5C 43.0681,26.7593 44.4015,28.7593 43.5,32.5C 39.1667,32.5 34.8333,32.5 30.5,32.5C 31.3891,30.264 32.7224,28.264 34.5,26.5C 30.9137,25.3849 30.5804,23.7182 33.5,21.5 Z"/></g>
<g><path style="opacity:1" fill="#d8dfe6" d="M 10.5,14.5 C 7.94386,17.6677 6.94386,21.3344 7.5,25.5C 6.16667,25.5 4.83333,25.5 3.5,25.5C 3.5,27.1667 3.5,28.8333 3.5,30.5C 10.175,30.6663 16.8417,30.4996 23.5,30C 24.0442,29.2828 24.7109,28.7828 25.5,28.5C 26.675,28.281 27.675,28.6143 28.5,29.5C 27.7255,31.3964 26.7255,33.063 25.5,34.5C 22.1538,32.6764 18.4872,32.0097 14.5,32.5C 13.1667,32.5 11.8333,32.5 10.5,32.5C 9.83333,32.5 9.16667,32.5 8.5,32.5C 4.82872,33.0015 2.49539,31.5015 1.5,28C 1.91943,25.9144 3.08609,24.4144 5,23.5C 5.43786,20.624 6.43786,17.9573 8,15.5C 8.67076,14.7476 9.5041,14.4142 10.5,14.5 Z"/></g>
<g><path style="opacity:1" fill="#dde2e7" d="M 44.5,17.5 C 46.2932,20.9471 45.2932,23.4471 41.5,25C 46.384,27.5275 46.7173,30.5275 42.5,34C 37.8452,34.4992 33.1785,34.6658 28.5,34.5C 28.8333,33.5 29.5,32.8333 30.5,32.5C 34.8333,32.5 39.1667,32.5 43.5,32.5C 44.4015,28.7593 43.0681,26.7593 39.5,26.5C 39.6495,27.552 39.4828,28.552 39,29.5C 38.8416,25.4702 37.0083,22.8035 33.5,21.5C 33.5,21.1667 33.5,20.8333 33.5,20.5C 35.4233,20.795 37.0899,21.6283 38.5,23C 42.8362,23.8334 44.8362,22.0001 44.5,17.5 Z"/></g>
<g><path style="opacity:1" fill="#0c5087" d="M 8.5,32.5 C 9.16667,32.5 9.83333,32.5 10.5,32.5C 11.0007,35.1553 12.3341,37.322 14.5,39C 13.0953,40.2692 11.4286,40.7692 9.5,40.5C 9.21373,38.7231 8.54707,37.0564 7.5,35.5C 7.68501,34.4163 8.01834,33.4163 8.5,32.5 Z"/></g>
<g><path style="opacity:1" fill="#1e5c97" d="M 14.5,32.5 C 18.4872,32.0097 22.1538,32.6764 25.5,34.5C 25.5,35.1667 25.5,35.8333 25.5,36.5C 26.2341,37.7079 26.5674,39.0413 26.5,40.5C 25.1667,40.5 23.8333,40.5 22.5,40.5C 21.8333,36.5 21.1667,36.5 20.5,40.5C 19.1667,40.5 17.8333,40.5 16.5,40.5C 16.33,39.1779 16.6634,38.0113 17.5,37C 16.2068,36.51 14.8734,36.3433 13.5,36.5C 13.4326,35.0413 13.7659,33.7079 14.5,32.5 Z"/></g>
<g><path style="opacity:1" fill="#04487c" d="M 29.5,36.5 C 31.9118,36.6941 32.9118,38.0274 32.5,40.5C 31.1667,40.5 29.8333,40.5 28.5,40.5C 28.4326,39.0413 28.7659,37.7079 29.5,36.5 Z"/></g>
<g><path style="opacity:1" fill="#03477b" d="M 35.5,36.5 C 37.9118,36.6941 38.9118,38.0274 38.5,40.5C 37.1667,40.5 35.8333,40.5 34.5,40.5C 34.4326,39.0413 34.7659,37.7079 35.5,36.5 Z"/></g>
</svg>
